<svg width="188" height="209" viewBox="0 0 188 209" fill="none" xmlns="http://www.w3.org/2000/svg">
<path d="M102.055 37.3925L135.435 56.4888C136.636 57.1593 136.679 59.0191 135.435 59.6896L95.7722 82.3976C94.5722 83.0896 93.1541 83.0464 92.0414 82.3976L52.378 59.6896C51.1562 59.0408 51.1344 57.1376 52.378 56.4888L85.7363 37.3925V0L0.5625 48.7465V146.24L33.2226 127.554V89.3614C33.2008 87.9989 34.8152 87.0256 36.0152 87.7609L75.6786 110.469C76.8786 111.161 77.5549 112.394 77.5549 113.67V159.065C77.5767 160.427 75.9622 161.4 74.7623 160.665L41.3822 141.567L8.72208 160.253L93.8958 209L179.069 160.253L146.41 141.567L113.029 160.665C111.851 161.378 110.193 160.448 110.237 159.065V113.67C110.237 112.307 111 111.096 112.113 110.469L151.777 87.7609C152.954 87.0473 154.613 87.9556 154.569 89.3614V127.554L187.229 146.24V48.7465L102.055 0V37.3925Z" fill="white"/>
</svg>
