<svg width="115" height="115" viewBox="0 0 115 115" fill="none" xmlns="http://www.w3.org/2000/svg">
<g clip-path="url(#clip0_1123_7252)">
<path fill-rule="evenodd" clip-rule="evenodd" d="M61.9982 21.9988L84.5574 34.2348L63.7125 6.36133C62.0579 8.579 61.0266 11.1979 60.7253 13.9471C60.4239 16.6964 60.8634 19.4761 61.9982 21.9988Z" fill="url(#paint0_linear_1123_7252)"/>
<path fill-rule="evenodd" clip-rule="evenodd" d="M51.804 67.3818C52.8192 67.3819 53.8116 67.682 54.6563 68.2444C55.501 68.8068 56.1601 69.6063 56.5507 70.5422C56.9412 71.4781 57.0457 72.5085 56.8509 73.5036C56.6562 74.4987 56.1709 75.414 55.4563 76.1341C54.7416 76.8542 53.8296 77.347 52.835 77.5503C51.8405 77.7536 50.8079 77.6584 49.8675 77.2766C48.927 76.8948 48.1207 76.2436 47.5502 75.405C46.9796 74.5663 46.6704 73.5778 46.6613 72.5639C46.6553 71.8855 46.7839 71.2127 47.0396 70.5842C47.2953 69.9558 47.6732 69.3842 48.1513 68.9024C48.6295 68.4206 49.1984 68.0381 49.8254 67.7771C50.4523 67.5162 51.1248 67.3818 51.804 67.3818Z" fill="url(#paint1_linear_1123_7252)"/>
<path fill-rule="evenodd" clip-rule="evenodd" d="M36.1021 10.4478L99.2769 44.6904C99.7935 44.9414 100.229 45.3324 100.534 45.8188C100.838 46.3052 101 46.8674 101 47.4412C101 48.015 100.838 48.5772 100.534 49.0636C100.229 49.55 99.7935 49.941 99.2769 50.192C94.4989 53.0636 89.2662 55.1017 83.8032 56.2187L70.6608 83.1562C70.6608 83.1562 66.501 92.6072 55.05 88.9775C59.8498 84.1835 65.6553 79.8461 65.6553 72.4726C65.6553 68.7975 64.1936 65.2729 61.5918 62.6743C58.9899 60.0756 55.4611 58.6157 51.7815 58.6157C48.102 58.6157 44.5731 60.0756 41.9713 62.6743C39.3695 65.2729 37.9078 68.7975 37.9078 72.4726C37.9078 82.1061 47.416 86.1696 52.6958 92.8583C53.8493 94.4892 54.4042 96.4677 54.2668 98.4598C54.1294 100.452 53.3081 102.336 51.9415 103.793C45.3818 97.3099 32.6965 86.3751 27.4853 79.2069C24.6362 75.593 23.0686 71.1368 23.0283 66.5372C23.2786 61.6429 25.032 56.9444 28.05 53.0805C31.068 49.2166 35.2042 46.3748 39.8963 44.9415C42.7742 44.1042 45.7697 43.7418 48.7645 43.8686C52.9403 44.1845 56.9966 45.4077 60.6498 47.4526C66.2496 50.7399 68.9695 49.8724 72.8322 46.6308C75.1178 44.7589 77.6092 38.6637 73.7464 37.2483C72.4835 36.8368 71.1926 36.5164 69.8837 36.2895C62.7069 34.897 50.1587 33.5729 45.5418 30.9477C38.2049 26.907 33.2679 18.5747 36.1021 10.4478Z" fill="url(#paint2_linear_1123_7252)"/>
<path fill-rule="evenodd" clip-rule="evenodd" d="M65.541 72.5404C68.4666 57.1769 52.8558 42.5211 40.8791 44.7126L41.679 44.53C41.039 44.667 40.4219 44.8268 39.8277 45.0094C35.1356 46.4427 30.9994 49.2845 27.9814 53.1484C24.9633 57.0123 23.21 61.7108 22.9597 66.6051C23.0326 71.2181 24.6409 75.6757 27.531 79.2748C32.7422 86.443 45.4275 97.3778 51.9872 103.861C53.3538 102.404 54.1751 100.52 54.3125 98.5277C54.4499 96.5356 53.895 94.5571 52.7415 92.9262C47.3474 86.2603 37.8392 82.174 37.8392 72.5633C37.8392 68.8882 39.3009 65.3637 41.9027 62.765C44.5045 60.1663 48.0334 58.7064 51.7129 58.7064C55.3925 58.7064 58.9213 60.1663 61.5232 62.765C64.125 65.3637 65.5867 68.8882 65.5867 72.5633L65.541 72.5404Z" fill="url(#paint3_linear_1123_7252)"/>
<path fill-rule="evenodd" clip-rule="evenodd" d="M36.1021 10.4478L84.1003 36.5635L85.4717 37.3168C86.6145 38.2071 87.7573 39.9877 86.2717 43.275C83.9861 48.1831 74.8435 52.9314 64.3068 49.2104C67.5981 50.1692 69.838 49.0734 72.7179 46.6536C75.0035 44.7817 77.4949 38.6865 73.6322 37.2711C72.3692 36.8596 71.0783 36.5392 69.7694 36.3123C62.5926 34.9198 50.0445 33.5958 45.4275 30.9705C38.2049 26.907 33.2679 18.5747 36.1021 10.4478Z" fill="url(#paint4_linear_1123_7252)"/>
<path fill-rule="evenodd" clip-rule="evenodd" d="M36.1018 10.4478C41.0616 28.7105 71.2548 30.2172 86.3857 37.8419L36.1018 10.4478Z" fill="url(#paint5_linear_1123_7252)"/>
<path fill-rule="evenodd" clip-rule="evenodd" d="M52.6272 92.9262C47.3474 86.2603 37.8391 82.174 37.8391 72.5633C37.8522 69.194 39.0939 65.9448 41.332 63.4238C43.57 60.9027 46.6511 59.2825 49.9987 58.8662C44.7001 58.8843 39.6237 60.9945 35.877 64.7367C32.1304 68.4788 30.0175 73.549 29.9994 78.8411C29.9969 80.191 30.1348 81.5374 30.4108 82.8589C34.7764 87.7898 41.0847 93.6111 46.4102 98.542C48.4902 100.482 50.4101 102.309 51.9872 103.861C53.2995 102.342 54.0993 100.449 54.2728 98.4507C54.3977 96.4725 53.8144 94.5144 52.6272 92.9262Z" fill="url(#paint6_linear_1123_7252)"/>
<path fill-rule="evenodd" clip-rule="evenodd" d="M65.4723 74.1843C65.5444 73.6393 65.5826 73.0904 65.5866 72.5407C68.4665 57.1771 52.8556 42.5213 40.8789 44.7128C43.4363 44.0956 46.0668 43.8344 48.6958 43.9366C64.398 44.5758 68.7864 61.3319 65.4723 74.1843Z" fill="url(#paint7_linear_1123_7252)"/>
<path fill-rule="evenodd" clip-rule="evenodd" d="M19.1655 40.2383C20.5376 40.2443 21.8514 40.7929 22.8195 41.7641C23.7876 42.7353 24.3311 44.0499 24.331 45.4203V50.5796H19.1655C17.7955 50.5796 16.4817 50.036 15.5129 49.0685C14.5442 48.1009 14 46.7886 14 45.4203C14 44.0499 14.5435 42.7353 15.5116 41.7641C16.4796 40.7929 17.7934 40.2443 19.1655 40.2383Z" fill="url(#paint8_linear_1123_7252)"/>
</g>
<defs>
<linearGradient id="paint0_linear_1123_7252" x1="52.5129" y1="20.3095" x2="97.4026" y2="20.3095" gradientUnits="userSpaceOnUse">
<stop stop-color="#FBAA19"/>
<stop offset="1" stop-color="#EF3E23"/>
</linearGradient>
<linearGradient id="paint1_linear_1123_7252" x1="50.0441" y1="77.3122" x2="53.5564" y2="67.6987" gradientUnits="userSpaceOnUse">
<stop stop-color="#F78D1E"/>
<stop offset="1" stop-color="#F37121"/>
</linearGradient>
<linearGradient id="paint2_linear_1123_7252" x1="22.1369" y1="80.6223" x2="76.7607" y2="22.0009" gradientUnits="userSpaceOnUse">
<stop stop-color="#FEBE2D"/>
<stop offset="1" stop-color="#F04E23"/>
</linearGradient>
<linearGradient id="paint3_linear_1123_7252" x1="60.7869" y1="46.4019" x2="30.5771" y2="92.9599" gradientUnits="userSpaceOnUse">
<stop stop-color="#EA4425"/>
<stop offset="1" stop-color="#FDBB27"/>
</linearGradient>
<linearGradient id="paint4_linear_1123_7252" x1="14.5486" y1="30.4911" x2="110.088" y2="30.4911" gradientUnits="userSpaceOnUse">
<stop stop-color="#F47920"/>
<stop offset="1" stop-color="#E93825"/>
</linearGradient>
<linearGradient id="paint5_linear_1123_7252" x1="-35.9184" y1="24.122" x2="158.474" y2="24.122" gradientUnits="userSpaceOnUse">
<stop stop-color="#FDCA0B"/>
<stop offset="1" stop-color="#F5841F"/>
</linearGradient>
<linearGradient id="paint6_linear_1123_7252" x1="33.5193" y1="47.6118" x2="53.7015" y2="118.096" gradientUnits="userSpaceOnUse">
<stop stop-color="#E73C25"/>
<stop offset="1" stop-color="#FAA21B"/>
</linearGradient>
<linearGradient id="paint7_linear_1123_7252" x1="-103.413" y1="59.0491" x2="185.148" y2="59.0491" gradientUnits="userSpaceOnUse">
<stop stop-color="#FDBA12"/>
<stop offset="1" stop-color="#F7921E"/>
</linearGradient>
<linearGradient id="paint8_linear_1123_7252" x1="14.1829" y1="44.53" x2="24.9931" y2="46.4522" gradientUnits="userSpaceOnUse">
<stop stop-color="#FEBE2D"/>
<stop offset="1" stop-color="#F04E23"/>
</linearGradient>
<clipPath id="clip0_1123_7252">
<rect width="100" height="102.5" fill="white" transform="translate(7.5 6.25)"/>
</clipPath>
</defs>
</svg>
