<svg width="115" height="115" viewBox="0 0 115 115" fill="none" xmlns="http://www.w3.org/2000/svg">
<g clip-path="url(#clip0_1123_7246)">
<path fill-rule="evenodd" clip-rule="evenodd" d="M64.7 82.8612C64.8198 82.9748 64.9129 83.1133 64.9726 83.2669C65.0322 83.4204 65.0571 83.5851 65.0452 83.7493C65.0334 83.9135 64.9852 84.073 64.9041 84.2165C64.8231 84.36 64.7111 84.4839 64.5762 84.5794C58.5333 89.8287 50.7095 93 42.1619 93C23.019 93 7.5 77.1078 7.5 57.5C7.5 37.8922 23.019 22 42.1619 22C50.7643 22 58.6381 25.2116 64.6976 30.5271C64.8056 30.6318 64.8913 30.757 64.9498 30.8952C65.0083 31.0334 65.0383 31.1818 65.0381 31.3318C65.0381 31.6229 64.9286 31.8998 64.7286 32.1128C61.1029 35.747 58.307 40.1147 56.531 44.9188C56.478 45.0576 56.3969 45.1842 56.2927 45.2905C56.1885 45.3969 56.0635 45.4809 55.9253 45.5373C55.7871 45.5936 55.6387 45.6212 55.4894 45.6182C55.3401 45.6152 55.1929 45.5818 55.0571 45.5199C54.9145 45.4526 54.7885 45.3548 54.6881 45.2336C51.5286 41.8516 47.0881 39.75 42.1643 39.75C32.5905 39.75 24.831 47.6973 24.831 57.5C24.831 67.3027 32.5881 75.25 42.1643 75.25C47.081 75.25 51.5214 73.1508 54.6762 69.7806C54.7969 69.6303 54.9562 69.515 55.1372 69.4468C55.3182 69.3787 55.5144 69.3602 55.705 69.3934C55.8957 69.4266 56.0739 69.5101 56.2209 69.6353C56.3679 69.7605 56.4783 69.9227 56.5405 70.1049C58.3117 74.8878 61.0941 79.2377 64.7 82.8612ZM89.319 75.25C79.8833 75.25 72.2357 67.3027 72.2357 57.5C72.2357 47.6973 79.8833 39.75 89.319 39.75C98.7524 39.75 106.402 47.6973 106.402 57.5C106.402 67.3027 98.7524 75.25 89.319 75.25Z" fill="white"/>
</g>
<defs>
<clipPath id="clip0_1123_7246">
<rect width="100" height="71" fill="white" transform="translate(7.5 22)"/>
</clipPath>
</defs>
</svg>
