<svg width="116" height="115" viewBox="0 0 116 115" fill="none" xmlns="http://www.w3.org/2000/svg">
<path d="M30.1666 46.5269C30.1666 38.246 44.9723 34.9852 53.9427 30.1385C67.3526 22.8927 78.9747 11.1197 84.5149 16.5267C91.144 22.9932 75.6783 38.1273 75.6783 46.4661C75.6783 54.8049 91.144 69.939 84.5149 76.4055C78.9747 81.8125 67.3526 70.0395 53.9427 62.7935C44.9723 57.9467 30.1666 54.6862 30.1666 46.4052V46.5269Z" fill="#E85A51"/>
<path d="M41.8614 19.4955L68.8302 46.4969L41.8614 73.4984V19.4955ZM38.7598 12V81L73.2183 46.4999L38.7598 12Z" fill="white"/>
<path d="M13.1618 102.862L9.23821 98.0226L8.21368 98.9707V102.862H6.16663V92H8.21368V96.7293L13.1037 92H15.5337L10.6998 96.7563L15.6619 102.86H13.1618V102.862Z" fill="white"/>
<path d="M35.467 103C32.7804 103 30.8036 102.009 30.8036 99.5621C30.8036 99.3429 30.8036 92 30.8036 92H32.8506C32.8506 92 32.8506 99.1762 32.8506 99.3838C32.8506 100.594 33.789 101.296 35.5092 101.296C37.0009 101.296 38.0814 100.607 38.0814 99.3973C38.0814 99.1918 38.0814 92 38.0814 92H40.1285C40.1285 92 40.1285 99.4787 40.1285 99.6726C40.1285 101.9 38.1958 103 35.467 103Z" fill="white"/>
<path d="M63.5981 102.862L58.7221 94.9163V102.862H56.7594V92H59.1753L63.8808 99.7134V92H65.8436V102.862H63.5981Z" fill="white"/>
<path d="M83.527 102.862H81.4238L85.7465 92H88.3187L92.4268 102.862H90.2956L89.3012 100.223H84.5675L83.527 102.862ZM87.2802 94.7495L86.9955 93.8285L86.7107 94.763L85.217 98.5169H88.6716L87.2802 94.7495Z" fill="white"/>
<path d="M108.077 102.862V92H110.167V102.862H108.077Z" fill="white"/>
</svg>
