<svg width="115" height="115" viewBox="0 0 115 115" fill="none" xmlns="http://www.w3.org/2000/svg">
<path d="M49.5271 81.7275H83.2624V90.5055H49.5271V81.7275Z" fill="#5CE8CF"/>
<path fill-rule="evenodd" clip-rule="evenodd" d="M66.5156 50.8448C68.1115 48.1222 68.5297 45.0265 68.5297 42.6349C68.5297 32.6161 60.2935 24.4941 50.1337 24.4941C39.9738 24.4941 31.7375 32.6161 31.7375 42.6349C31.7375 44.9101 32.2853 48.2576 33.7517 50.8448C38.743 59.6505 50.1337 77.1268 50.1337 77.1268C50.1337 77.1268 61.4255 59.5278 66.5156 50.8448ZM50.1135 49.4111C54.4205 49.4111 57.9119 45.9346 57.9119 41.6461C57.9119 37.3576 54.4205 33.8811 50.1135 33.8811C45.8066 33.8811 42.3152 37.3576 42.3152 41.6461C42.3152 45.9346 45.8066 49.4111 50.1135 49.4111Z" fill="#5CE8CF"/>
</svg>
