<svg width="116" height="115" viewBox="0 0 116 115" fill="none" xmlns="http://www.w3.org/2000/svg">
<g clip-path="url(#clip0_1123_7251)">
<path d="M39.1833 22.7C39.0233 22.81 38.8133 22.93 38.7333 22.97C38.5833 23.04 33.9533 25.71 33.3233 26.09C33.1333 26.21 32.9133 26.33 32.8333 26.37C32.7533 26.41 32.0333 26.82 31.2333 27.28C30.4333 27.75 29.5833 28.24 29.3333 28.38C29.0833 28.51 28.6333 28.77 28.3333 28.95C28.0333 29.13 27.4433 29.47 27.0333 29.71C26.1833 30.21 25.8333 30.41 25.6133 30.55C25.3533 30.71 25.2933 31.13 25.5033 31.37C25.6833 31.58 32.7733 35.8 32.9433 35.8C32.9933 35.8 33.0333 35.84 33.0333 35.89C33.0333 35.94 33.1133 36 33.2133 36.04C33.3033 36.07 33.4533 36.14 33.5333 36.19C33.7733 36.34 35.7633 37.51 40.0833 40.06C40.6333 40.38 41.1633 40.69 41.2533 40.75C41.3433 40.8 41.5433 40.92 41.7033 41.01C41.8533 41.1 43.2233 41.9 44.7333 42.8C46.2433 43.69 47.6433 44.51 47.8333 44.62C48.0233 44.72 48.4133 44.95 48.6833 45.12C48.9633 45.29 49.3233 45.5 49.4833 45.6C49.6533 45.69 50.6833 46.3 51.7833 46.95C57.2133 50.16 57.8033 50.49 58.1433 50.51C58.4133 50.53 58.8733 50.31 60.4333 49.4C61.5033 48.78 62.5433 48.18 62.7333 48.08C62.9233 47.97 63.4933 47.64 63.9833 47.35C64.7633 46.9 67.4533 45.34 68.5333 44.72C71.2933 43.14 72.4133 42.47 72.5533 42.3C72.7933 42 72.6233 41.59 72.1533 41.33C71.9533 41.22 70.9333 40.62 69.8833 40C68.8433 39.38 66.6833 38.11 65.0833 37.17C63.4933 36.24 61.6033 35.13 60.8833 34.7C60.1733 34.27 58.4333 33.25 57.0333 32.43C55.6333 31.6 51.6733 29.27 48.2333 27.25C44.7933 25.22 41.6033 23.35 41.1433 23.08C40.1633 22.51 39.6333 22.4 39.1833 22.7Z" fill="white"/>
<path d="M76.0033 22.6799C75.9033 22.6999 74.6833 23.3699 73.3033 24.1699C71.9133 24.9699 70.6033 25.7199 70.3833 25.8499C69.7733 26.1999 64.0533 29.4899 63.6933 29.6999C63.5233 29.7999 63.0533 30.0699 62.6533 30.2999C61.8733 30.7399 61.6333 31.0499 61.7933 31.4099C61.9133 31.6599 75.8433 39.8899 76.2833 39.9599C76.6233 40.0199 76.9533 39.8599 78.9633 38.6899C79.6633 38.2799 80.3833 37.8699 80.5633 37.7599C80.7433 37.6599 82.2533 36.7899 83.9333 35.8199C85.6133 34.8599 87.5733 33.7299 88.2833 33.3199C89.0033 32.9099 89.8033 32.4499 90.0633 32.2999C90.9233 31.8199 91.1233 31.4999 90.8033 31.0999C90.7333 31.0099 89.8733 30.4699 88.8833 29.8799C87.8933 29.2999 84.8333 27.4999 82.0833 25.8799C79.3333 24.2599 76.9933 22.8799 76.8733 22.8199C76.6133 22.6799 76.2433 22.6199 76.0033 22.6799Z" fill="white"/>
<path d="M23.1933 34.6499C22.9833 34.8099 23.0133 32.6399 22.8933 60.3399C22.8333 73.8999 22.8133 73.2999 23.3633 73.5799C23.4833 73.6499 23.7633 73.8099 23.9833 73.9399C24.2033 74.0799 24.4933 74.2499 24.6333 74.3299C24.9333 74.4999 25.6533 74.9299 31.5333 78.3999C37.6433 81.9999 37.1033 81.6999 37.4033 81.6999C37.9333 81.6999 37.9233 81.7399 37.9433 75.3599C37.9733 60.6099 37.9433 61.3999 38.4333 61.2699C38.6933 61.1999 38.6933 61.1999 45.6333 65.2999C49.0133 67.2899 51.9633 69.0299 52.1833 69.1499C52.4033 69.2799 53.2733 69.7899 54.1133 70.2899C55.6433 71.1899 55.8533 71.2799 56.1233 71.1099C56.2933 70.9999 56.2933 70.8099 56.3733 60.4599L56.4233 53.9699L56.1033 53.6499C55.9233 53.4799 54.7033 52.7099 53.3833 51.9299C52.0633 51.1599 48.7533 49.2099 46.0333 47.5999C43.3133 45.9899 40.9233 44.5899 40.7333 44.4799C40.2333 44.1899 37.1833 42.3899 35.9133 41.6299C35.3233 41.2799 34.7433 40.9399 34.6133 40.8699C34.3633 40.7299 33.3833 40.1499 33.1333 39.9999C32.8533 39.8199 29.4733 37.8399 29.3333 37.7599C29.2533 37.7199 29.0933 37.6399 28.9833 37.5699C28.8733 37.4999 28.0233 36.9899 27.0833 36.4399C23.5633 34.3499 23.5833 34.3599 23.1933 34.6499Z" fill="white"/>
<path d="M91.7834 35.2099C91.5634 35.3299 91.2534 35.4999 91.0834 35.5999C90.9234 35.6999 90.5834 35.8899 90.3334 36.0199C90.0834 36.1599 89.3234 36.5999 88.6334 36.9999C87.9534 37.3999 87.2534 37.8099 87.0834 37.8999C86.9234 37.9999 86.6234 38.1599 86.4334 38.2799C86.2434 38.3899 84.4634 39.4099 82.4834 40.5499C77.9734 43.1399 78.0634 43.0899 77.8834 43.4599C77.7634 43.7199 77.7434 45.2599 77.7234 53.9699C77.7134 62.9399 77.6934 64.2099 77.5534 64.4899C77.4434 64.7199 77.1534 64.9499 76.5434 65.3099C76.0734 65.5799 75.6134 65.8399 75.5334 65.8899C75.3934 65.9799 69.7234 69.2399 69.0834 69.5999C68.9234 69.6999 67.4834 70.5299 65.8834 71.4499C64.2934 72.3699 62.8234 73.2099 62.6334 73.3199C60.6234 74.4499 59.7634 74.9999 59.6034 75.2699C59.4434 75.5499 59.4234 76.1499 59.3934 83.7499C59.3634 88.2499 59.3834 92.0299 59.4334 92.1499C59.4834 92.2699 59.6334 92.3999 59.7834 92.4399C60.0034 92.4999 60.6934 92.1299 64.0634 90.1899C66.2734 88.9099 68.1934 87.7999 68.3334 87.7299C68.4734 87.6499 68.7634 87.4799 68.9834 87.3399C69.2034 87.1999 69.4934 87.0399 69.6334 86.9699C69.7734 86.8999 70.3134 86.5999 70.8334 86.2899C71.3534 85.9799 71.9434 85.6399 72.1334 85.5299C72.6734 85.2199 76.3634 83.0999 77.4834 82.4499C78.0334 82.1299 78.7834 81.6999 79.1534 81.4899C79.5234 81.2799 79.9734 81.0199 80.1534 80.9099C80.3334 80.8099 81.2034 80.3099 82.0834 79.7999C83.4934 78.9799 84.0034 78.6799 85.3534 77.9099C90.7934 74.7999 92.2934 73.8899 92.4734 73.5999C92.6834 73.2399 92.6534 75.9499 92.7734 47.7199C92.8334 35.5399 92.8234 35.3899 92.6334 35.1999C92.3834 34.9499 92.2734 34.9499 91.7834 35.2099Z" fill="white"/>
<path d="M73.4834 45.7699C73.2034 45.9099 71.7034 46.7699 70.1334 47.6799C68.5634 48.5899 67.1034 49.4299 66.8834 49.5499C66.6634 49.6799 65.4934 50.3499 64.2834 51.0499C63.0734 51.7499 61.6034 52.5999 61.0234 52.9299C59.3534 53.8899 59.5434 52.7499 59.4934 62.4099C59.4434 71.3499 59.4334 71.0999 59.9734 71.0999C60.1634 71.0999 66.1234 67.7499 69.1334 65.9599C69.4334 65.7799 70.6934 65.0499 71.9334 64.3499C73.1734 63.6499 74.2534 62.9899 74.3534 62.8899C74.4934 62.7199 74.5134 62.1199 74.5334 56.5799C74.5434 53.2099 74.5534 49.4199 74.5634 48.1599L74.5834 45.8799L74.3434 45.6899C74.0534 45.4499 74.0734 45.4499 73.4834 45.7699Z" fill="white"/>
<path d="M41.3333 66.8C41.1433 66.99 41.1333 67.14 41.1233 68.97C41.1233 70.06 41.1133 73.84 41.1033 77.37L41.0833 83.8L41.3833 84.09C41.6233 84.32 44.3033 85.96 46.5833 87.26C46.8033 87.38 48.8933 88.61 51.2233 89.99C53.5633 91.37 55.5433 92.5 55.6333 92.5C55.7233 92.5 55.8833 92.44 55.9833 92.36C56.2133 92.2 56.2033 92.48 56.2433 82.19C56.2733 75.95 56.2633 75.41 56.1033 75.17C56.0033 75.02 55.0333 74.37 53.7633 73.62C47.0733 69.65 41.8233 66.6 41.6933 66.6C41.6033 66.6 41.4433 66.69 41.3333 66.8Z" fill="white"/>
</g>
<defs>
<clipPath id="clip0_1123_7251">
<rect width="70" height="70" fill="white" transform="translate(22.8333 22.5)"/>
</clipPath>
</defs>
</svg>
