<svg width="116" height="115" viewBox="0 0 116 115" fill="none" xmlns="http://www.w3.org/2000/svg">
<g clip-path="url(#clip0_1123_7247)">
<path opacity="0.05" d="M52.633 74.5338C71.6769 74.5338 87.115 72.4152 87.115 69.8018C87.115 67.1884 71.6769 65.0698 52.633 65.0698C33.5891 65.0698 18.151 67.1884 18.151 69.8018C18.151 72.4152 33.5891 74.5338 52.633 74.5338Z" fill="black"/>
<path d="M63.5808 44.4755C60.5874 42.2467 57.2863 40.4641 53.7808 39.1835C51.1425 38.1174 48.6267 36.7703 46.2768 35.1655C40.6768 31.2642 37.8768 26.4249 37.8768 20.6475C37.7643 17.1625 38.8792 13.7486 41.0268 11.0015C41.4003 10.5382 41.8024 10.0987 42.2308 9.68555L30.2608 12.4855C29.4291 12.6664 28.6414 13.0095 27.9426 13.4953C27.2438 13.9812 26.6478 14.6002 26.1887 15.3168C25.7296 16.0334 25.4164 16.8336 25.2671 17.6715C25.1179 18.5094 25.1354 19.3685 25.3188 20.1995L35.2308 63.0255C35.633 64.6802 36.6715 66.1095 38.1209 67.0032C39.5703 67.897 41.3137 68.1831 42.9728 67.7995L47.8868 66.6655L47.4668 66.6235C44.1629 65.6119 40.9799 64.2411 37.9748 62.5355L43.0988 51.0835C47.2096 54.4309 52.3576 56.2426 57.6588 56.2076C63.2588 56.2076 66.0588 54.2055 66.0588 50.2295C66.0942 49.1473 65.8905 48.0705 65.4622 47.0759C65.0339 46.0813 64.3915 45.1935 63.5808 44.4755Z" fill="white"/>
<path d="M90.6569 50.2297L80.7449 7.40374C80.3583 5.73314 79.3241 4.28444 77.8697 3.3761C76.4153 2.46776 74.6597 2.17412 72.9889 2.55974L65.7789 4.22574C66.6096 4.35641 67.4309 4.51041 68.2429 4.68774C71.4793 5.40617 74.6121 6.5304 77.5669 8.03374L73.3669 19.2337C70.2309 16.5457 65.8489 15.2017 60.2489 15.2017C55.2275 15.2017 52.7122 17.1991 52.7029 21.1937C52.7578 22.039 53.0107 22.8596 53.4412 23.5891C53.8716 24.3187 54.4676 24.9369 55.1809 25.3937C58.5019 27.4999 62.053 29.2191 65.7649 30.5177C68.9865 31.7006 72.0046 33.3773 74.7109 35.4877C75.7457 36.3137 76.6849 37.2529 77.5109 38.2877C79.9149 41.4276 81.17 45.2966 81.0669 49.2497C81.1824 53.0769 79.9706 56.8262 77.6369 59.8617L85.7989 57.9997C86.6297 57.8116 87.4151 57.4609 88.1098 56.9678C88.8044 56.4746 89.3946 55.8489 89.8462 55.1265C90.2978 54.4042 90.602 53.5996 90.7411 52.7592C90.8802 51.9187 90.8516 51.0591 90.6569 50.2297Z" fill="white"/>
<path d="M57.7567 79.2797C52.4419 79.2396 47.279 81.0513 43.1547 84.4037L38.0167 72.9377C41.0304 71.2262 44.2228 69.8506 47.5367 68.8357L47.9147 68.7377L43.0007 67.6037C41.3262 67.2182 39.5671 67.5134 38.1101 68.4243C36.6531 69.3353 35.6174 70.7875 35.2307 72.4617L25.3187 115.4C24.9332 117.074 25.2283 118.833 26.1393 120.29C27.0502 121.747 28.5025 122.783 30.1767 123.17L42.1607 125.97C41.7319 125.552 41.3298 125.108 40.9567 124.64C38.8092 121.887 37.6945 118.469 37.8067 114.98C37.8067 109.193 40.6067 104.344 46.2067 100.434C48.5607 98.8238 51.0813 97.472 53.7247 96.4017C57.2599 95.1231 60.5896 93.3356 63.6087 91.0957C64.4307 90.381 65.0842 89.4931 65.5223 88.4958C65.9604 87.4985 66.1723 86.4166 66.1427 85.3277C66.1847 81.2817 63.3847 79.2797 57.7567 79.2797Z" fill="url(#paint0_linear_1123_7247)"/>
<path d="M85.9248 77.5018L77.7488 75.6118C80.0915 78.6541 81.3085 82.4138 81.1928 86.2518C81.2985 90.227 80.033 94.1176 77.6087 97.2698C76.7825 98.3044 75.8433 99.2436 74.8087 100.07C72.0942 102.187 69.0666 103.868 65.8347 105.054C62.1183 106.352 58.5626 108.071 55.2367 110.178C54.5216 110.634 53.9235 111.252 53.4907 111.981C53.0579 112.711 52.8024 113.532 52.7448 114.378C52.7448 118.372 55.2647 120.374 60.3047 120.384C65.9047 120.384 70.3148 118.984 73.4508 116.338L77.6508 127.538C74.6919 129.046 71.5544 130.175 68.3127 130.898C67.5007 131.075 66.6794 131.229 65.8488 131.36L73.0867 133.04C74.7593 133.426 76.5167 133.132 77.9733 132.224C79.43 131.316 80.4669 129.867 80.8567 128.196L90.7827 85.2718C90.9756 84.4426 91.0028 83.5834 90.8628 82.7436C90.7228 81.9039 90.4184 81.1 89.9671 80.3781C89.5158 79.6562 88.9263 79.0306 88.2327 78.537C87.539 78.0434 86.7547 77.6916 85.9248 77.5018Z" fill="url(#paint1_linear_1123_7247)"/>
</g>
<defs>
<linearGradient id="paint0_linear_1123_7247" x1="45.6747" y1="67.4357" x2="45.6747" y2="125.914" gradientUnits="userSpaceOnUse">
<stop stop-color="white" stop-opacity="0.3"/>
<stop offset="0.02" stop-color="white" stop-opacity="0.28"/>
<stop offset="0.28" stop-color="white" stop-opacity="0.13"/>
<stop offset="0.48" stop-color="white" stop-opacity="0.04"/>
<stop offset="0.6" stop-color="white" stop-opacity="0"/>
</linearGradient>
<linearGradient id="paint1_linear_1123_7247" x1="71.8827" y1="75.6258" x2="71.8827" y2="133.208" gradientUnits="userSpaceOnUse">
<stop stop-color="white" stop-opacity="0.2"/>
<stop offset="0.14" stop-color="white" stop-opacity="0.13"/>
<stop offset="0.36" stop-color="white" stop-opacity="0.04"/>
<stop offset="0.5" stop-color="white" stop-opacity="0"/>
</linearGradient>
<clipPath id="clip0_1123_7247">
<rect width="84" height="112" fill="white" transform="translate(9.66663 2)"/>
</clipPath>
</defs>
</svg>
