<svg width="207" height="214" viewBox="0 0 207 214" fill="none" xmlns="http://www.w3.org/2000/svg">
<g clip-path="url(#clip0_685_8936)">
<path d="M134.954 106.847L172.069 42.704L190.02 106.847L172.069 171.071L134.873 106.847H134.954ZM116.842 117.376L154.037 181.518L89.3496 164.916L42.532 117.214H116.761L116.842 117.376ZM153.956 32.1755L116.842 96.3995H42.6129L89.2688 48.7782L153.956 32.1755ZM206.919 84.9801L184.359 0.589966L99.7805 23.2668L87.2473 45.2957L61.8574 45.1337L0 106.847L61.8574 168.641L87.2473 168.479L99.7805 190.508L184.279 213.104L206.919 128.714L194.062 106.847L207 84.9801H206.919Z" fill="#EEEEEC"/>
</g>
<defs>
<clipPath id="clip0_685_8936">
<rect width="207" height="213" fill="white" transform="translate(0 0.589966)"/>
</clipPath>
</defs>
</svg>
