<svg width="182" height="206" viewBox="0 0 182 206" fill="none" xmlns="http://www.w3.org/2000/svg">
<path d="M91 206.007L174.023 158.076L142.354 139.675L109.83 158.504C108.546 159.36 107.262 158.504 107.262 156.793V112.286C107.262 111.002 108.118 109.718 108.974 109.29L147.49 87.0363C148.774 86.1804 150.058 87.0363 150.058 88.7481V126.408L181.726 144.81V48.5205L91 101.159V206.007Z" fill="#A5A5A5"/>
<path d="M99.1311 0.589844V37.3938L131.656 56.2237C132.939 57.0797 132.939 58.7915 131.656 59.2194L93.1397 81.473C91.8559 82.3289 90.572 81.9009 89.7161 81.473L51.2003 59.2194C49.9165 58.7915 49.9165 56.6517 51.2003 56.2237L83.7248 37.3938V0.589844L0.273926 48.5206L91 101.159L181.726 48.5206L99.1311 0.589844Z" fill="white"/>
<path d="M72.598 158.504L40.0736 139.675L8.40503 158.076L91.4279 206.007V101.159L0.273926 48.5205V144.382L31.9425 125.98V88.3201C31.9425 87.0363 33.6543 86.1804 34.5102 86.6083L73.0259 108.862C74.3098 109.718 74.7378 110.574 74.7378 111.858V156.365C75.1657 158.076 73.8819 159.36 72.598 158.504Z" fill="#CCCCCC"/>
</svg>
