<svg width="121" height="40" viewBox="0 0 121 40" fill="none" xmlns="http://www.w3.org/2000/svg">
<path d="M17.978 17.8483C19.8646 16.2977 20.7005 7.13353 21.5172 3.83943C22.3339 0.545338 25.7114 0.712412 25.7114 0.712412C25.7114 0.712412 24.8346 2.22891 25.1922 3.36059C25.5499 4.49228 28 5.50386 28 5.50386L27.4716 6.88834C27.4716 6.88834 26.3681 6.74807 25.7114 8.05338C25.0548 9.3587 26.534 22.1507 26.534 22.1507C26.534 22.1507 22.1869 30.0192 22.1869 33.2853C22.1869 36.5514 23.7425 39.2887 23.7425 39.2887H21.5596C21.5596 39.2887 18.3572 35.5015 17.7005 33.6088C17.0437 31.7161 17.3063 29.8234 17.3063 29.8234C17.3063 29.8234 13.8255 29.6276 10.7389 29.8234C7.65229 30.0192 5.59384 32.656 5.22233 34.131C4.85082 35.6059 4.69693 39.2887 4.69693 39.2887H2.97089C1.92033 36.0669 1.08596 34.9122 1.5386 33.2853C2.79237 28.7792 2.54609 26.2234 2.2558 25.085C1.96551 23.9467 0 22.9532 0 22.9532C0.962811 21.0039 1.9456 20.0671 6.17308 19.9694C10.4006 19.8717 16.0914 19.399 17.978 17.8483Z" fill="#FF6A2D"/>
<path d="M6.67529 33.097C6.67529 33.097 7.12131 37.1988 9.49086 39.2891H11.5215C9.49086 37.003 9.26942 31.0441 9.26942 31.0441C8.23657 31.3783 6.80663 32.5748 6.67529 33.097Z" fill="#FF6A2D"/>
<path d="M42.2695 16.4336V18.4258H36.1172V16.4336H42.2695ZM37.6406 13.8262H40.4531V23.8164C40.4531 24.1224 40.4922 24.3568 40.5703 24.5195C40.6549 24.6823 40.7786 24.7962 40.9414 24.8613C41.1042 24.9199 41.3092 24.9492 41.5566 24.9492C41.7324 24.9492 41.8887 24.9427 42.0254 24.9297C42.1686 24.9102 42.2891 24.8906 42.3867 24.8711L42.3965 26.9414C42.1556 27.0195 41.8952 27.0814 41.6152 27.127C41.3353 27.1725 41.026 27.1953 40.6875 27.1953C40.069 27.1953 39.5286 27.0944 39.0664 26.8926C38.6107 26.6842 38.2591 26.3522 38.0117 25.8965C37.7643 25.4408 37.6406 24.8418 37.6406 24.0996V13.8262ZM46.8398 16.4336V27H44.0176V16.4336H46.8398ZM43.8418 13.6797C43.8418 13.2695 43.985 12.931 44.2715 12.6641C44.5579 12.3971 44.9421 12.2637 45.4238 12.2637C45.8991 12.2637 46.2799 12.3971 46.5664 12.6641C46.8594 12.931 47.0059 13.2695 47.0059 13.6797C47.0059 14.0898 46.8594 14.4284 46.5664 14.6953C46.2799 14.9622 45.8991 15.0957 45.4238 15.0957C44.9421 15.0957 44.5579 14.9622 44.2715 14.6953C43.985 14.4284 43.8418 14.0898 43.8418 13.6797ZM51.918 18.6895V27H49.1055V16.4336H51.7422L51.918 18.6895ZM51.5078 21.3457H50.7461C50.7461 20.5645 50.847 19.8613 51.0488 19.2363C51.2507 18.6048 51.5339 18.0677 51.8984 17.625C52.263 17.1758 52.696 16.834 53.1973 16.5996C53.7051 16.3587 54.2715 16.2383 54.8965 16.2383C55.3913 16.2383 55.8438 16.3099 56.2539 16.4531C56.6641 16.5964 57.0156 16.8242 57.3086 17.1367C57.6081 17.4492 57.8359 17.8626 57.9922 18.377C58.1549 18.8913 58.2363 19.5195 58.2363 20.2617V27H55.4043V20.252C55.4043 19.7832 55.3392 19.4186 55.209 19.1582C55.0788 18.8978 54.8867 18.7155 54.6328 18.6113C54.3854 18.5007 54.0794 18.4453 53.7148 18.4453C53.3372 18.4453 53.0085 18.5202 52.7285 18.6699C52.4551 18.8197 52.2272 19.028 52.0449 19.2949C51.8691 19.5553 51.7357 19.8613 51.6445 20.2129C51.5534 20.5645 51.5078 20.9421 51.5078 21.3457ZM66.0781 24.6172V19.9102C66.0781 19.5716 66.0228 19.2819 65.9121 19.041C65.8014 18.7936 65.6289 18.6016 65.3945 18.4648C65.1667 18.3281 64.8704 18.2598 64.5059 18.2598C64.1934 18.2598 63.9232 18.3151 63.6953 18.4258C63.4674 18.5299 63.2917 18.6829 63.168 18.8848C63.0443 19.0801 62.9824 19.3112 62.9824 19.5781H60.1699C60.1699 19.1289 60.2741 18.7025 60.4824 18.2988C60.6908 17.8952 60.9935 17.5404 61.3906 17.2344C61.7878 16.9219 62.2598 16.6777 62.8066 16.502C63.36 16.3262 63.9785 16.2383 64.6621 16.2383C65.4824 16.2383 66.2116 16.375 66.8496 16.6484C67.4876 16.9219 67.9889 17.332 68.3535 17.8789C68.7246 18.4258 68.9102 19.1094 68.9102 19.9297V24.4512C68.9102 25.0306 68.946 25.5059 69.0176 25.877C69.0892 26.2415 69.1934 26.5605 69.3301 26.834V27H66.4883C66.3516 26.7135 66.2474 26.3555 66.1758 25.9258C66.1107 25.4896 66.0781 25.0534 66.0781 24.6172ZM66.4492 20.5645L66.4688 22.1562H64.8965C64.5254 22.1562 64.2031 22.1986 63.9297 22.2832C63.6562 22.3678 63.4316 22.4883 63.2559 22.6445C63.0801 22.7943 62.9499 22.9701 62.8652 23.1719C62.7871 23.3737 62.748 23.5951 62.748 23.8359C62.748 24.0768 62.8034 24.2949 62.9141 24.4902C63.0247 24.679 63.1842 24.8288 63.3926 24.9395C63.6009 25.0436 63.8451 25.0957 64.125 25.0957C64.5482 25.0957 64.916 25.0111 65.2285 24.8418C65.541 24.6725 65.7819 24.4642 65.9512 24.2168C66.127 23.9694 66.2181 23.735 66.2246 23.5137L66.9668 24.7051C66.8626 24.972 66.7194 25.2487 66.5371 25.5352C66.3613 25.8216 66.1367 26.0918 65.8633 26.3457C65.5898 26.5931 65.2611 26.7982 64.877 26.9609C64.4928 27.1172 64.0371 27.1953 63.5098 27.1953C62.8392 27.1953 62.2305 27.0618 61.6836 26.7949C61.1432 26.5215 60.7135 26.1471 60.3945 25.6719C60.082 25.1901 59.9258 24.6432 59.9258 24.0312C59.9258 23.4779 60.0299 22.9863 60.2383 22.5566C60.4466 22.127 60.7526 21.7656 61.1562 21.4727C61.5664 21.1732 62.0775 20.9486 62.6895 20.7988C63.3014 20.6426 64.0111 20.5645 64.8184 20.5645H66.4492ZM75.4824 27H72.5137L72.5332 25.4668H75.4824C76.498 25.4668 77.3444 25.2552 78.0215 24.832C78.6986 24.4023 79.2064 23.8034 79.5449 23.0352C79.89 22.2604 80.0625 21.3555 80.0625 20.3203V19.4512C80.0625 18.6374 79.9648 17.9147 79.7695 17.2832C79.5742 16.6452 79.2878 16.1081 78.9102 15.6719C78.5326 15.2292 78.0703 14.8939 77.5234 14.666C76.9831 14.4382 76.3613 14.3242 75.6582 14.3242H72.4551V12.7812H75.6582C76.5892 12.7812 77.4388 12.9375 78.207 13.25C78.9753 13.556 79.6361 14.002 80.1895 14.5879C80.7493 15.1673 81.179 15.8704 81.4785 16.6973C81.778 17.5176 81.9277 18.4421 81.9277 19.4707V20.3203C81.9277 21.349 81.778 22.2767 81.4785 23.1035C81.179 23.9238 80.7461 24.6237 80.1797 25.2031C79.6198 25.7826 78.9427 26.2285 78.1484 26.541C77.3607 26.847 76.472 27 75.4824 27ZM73.5195 12.7812V27H71.6348V12.7812H73.5195ZM84.0078 21.834V21.6094C84.0078 20.8477 84.1185 20.1413 84.3398 19.4902C84.5612 18.8327 84.8802 18.263 85.2969 17.7812C85.7135 17.293 86.2181 16.9154 86.8105 16.6484C87.403 16.375 88.0671 16.2383 88.8027 16.2383C89.5449 16.2383 90.2122 16.375 90.8047 16.6484C91.4036 16.9154 91.9115 17.293 92.3281 17.7812C92.7513 18.263 93.0736 18.8327 93.2949 19.4902C93.5163 20.1413 93.627 20.8477 93.627 21.6094V21.834C93.627 22.5957 93.5163 23.3021 93.2949 23.9531C93.0736 24.6042 92.7513 25.1738 92.3281 25.6621C91.9115 26.1439 91.4069 26.5215 90.8145 26.7949C90.2285 27.0618 89.5645 27.1953 88.8223 27.1953C88.0801 27.1953 87.4128 27.0618 86.8203 26.7949C86.2279 26.5215 85.7201 26.1439 85.2969 25.6621C84.8802 25.1738 84.5612 24.6042 84.3398 23.9531C84.1185 23.3021 84.0078 22.5957 84.0078 21.834ZM85.8145 21.6094V21.834C85.8145 22.3613 85.8763 22.8594 86 23.3281C86.1237 23.7904 86.3092 24.2005 86.5566 24.5586C86.8105 24.9167 87.1263 25.1999 87.5039 25.4082C87.8815 25.61 88.321 25.7109 88.8223 25.7109C89.3171 25.7109 89.75 25.61 90.1211 25.4082C90.4987 25.1999 90.8112 24.9167 91.0586 24.5586C91.306 24.2005 91.4915 23.7904 91.6152 23.3281C91.7454 22.8594 91.8105 22.3613 91.8105 21.834V21.6094C91.8105 21.0885 91.7454 20.597 91.6152 20.1348C91.4915 19.666 91.3027 19.2526 91.0488 18.8945C90.8014 18.5299 90.4889 18.2435 90.1113 18.0352C89.7402 17.8268 89.304 17.7227 88.8027 17.7227C88.3079 17.7227 87.8717 17.8268 87.4941 18.0352C87.123 18.2435 86.8105 18.5299 86.5566 18.8945C86.3092 19.2526 86.1237 19.666 86 20.1348C85.8763 20.597 85.8145 21.0885 85.8145 21.6094ZM100.121 25.7109C100.551 25.7109 100.948 25.623 101.312 25.4473C101.677 25.2715 101.977 25.0306 102.211 24.7246C102.445 24.4121 102.579 24.0573 102.611 23.6602H104.33C104.298 24.2852 104.086 24.8678 103.695 25.4082C103.311 25.9421 102.807 26.375 102.182 26.707C101.557 27.0326 100.87 27.1953 100.121 27.1953C99.3268 27.1953 98.6335 27.0553 98.041 26.7754C97.4551 26.4954 96.9668 26.1113 96.5762 25.623C96.1921 25.1348 95.9023 24.5749 95.707 23.9434C95.5182 23.3053 95.4238 22.6315 95.4238 21.9219V21.5117C95.4238 20.8021 95.5182 20.1315 95.707 19.5C95.9023 18.862 96.1921 18.2988 96.5762 17.8105C96.9668 17.3223 97.4551 16.9382 98.041 16.6582C98.6335 16.3783 99.3268 16.2383 100.121 16.2383C100.948 16.2383 101.671 16.4076 102.289 16.7461C102.908 17.0781 103.393 17.5339 103.744 18.1133C104.102 18.6862 104.298 19.3372 104.33 20.0664H102.611C102.579 19.6302 102.455 19.2363 102.24 18.8848C102.032 18.5332 101.745 18.2533 101.381 18.0449C101.023 17.8301 100.603 17.7227 100.121 17.7227C99.5677 17.7227 99.1022 17.8333 98.7246 18.0547C98.3535 18.2695 98.0573 18.5625 97.8359 18.9336C97.6211 19.2982 97.4648 19.7051 97.3672 20.1543C97.276 20.597 97.2305 21.0495 97.2305 21.5117V21.9219C97.2305 22.3841 97.276 22.8398 97.3672 23.2891C97.4583 23.7383 97.6113 24.1452 97.8262 24.5098C98.0475 24.8743 98.3438 25.1673 98.7148 25.3887C99.0924 25.6035 99.5612 25.7109 100.121 25.7109ZM112.514 24.1973C112.514 23.9368 112.455 23.696 112.338 23.4746C112.227 23.2467 111.996 23.0417 111.645 22.8594C111.299 22.6706 110.779 22.5078 110.082 22.3711C109.496 22.2474 108.965 22.1009 108.49 21.9316C108.021 21.7624 107.621 21.5573 107.289 21.3164C106.964 21.0755 106.713 20.7923 106.537 20.4668C106.361 20.1413 106.273 19.7604 106.273 19.3242C106.273 18.9076 106.365 18.5137 106.547 18.1426C106.736 17.7715 106.999 17.4427 107.338 17.1562C107.683 16.8698 108.096 16.6452 108.578 16.4824C109.06 16.3197 109.597 16.2383 110.189 16.2383C111.036 16.2383 111.758 16.388 112.357 16.6875C112.956 16.987 113.415 17.3874 113.734 17.8887C114.053 18.3835 114.213 18.9336 114.213 19.5391H112.406C112.406 19.2461 112.318 18.9629 112.143 18.6895C111.973 18.4095 111.723 18.1784 111.391 17.9961C111.065 17.8138 110.665 17.7227 110.189 17.7227C109.688 17.7227 109.281 17.8008 108.969 17.957C108.663 18.1068 108.438 18.2988 108.295 18.5332C108.158 18.7676 108.09 19.015 108.09 19.2754C108.09 19.4707 108.122 19.6465 108.188 19.8027C108.259 19.9525 108.383 20.0924 108.559 20.2227C108.734 20.3464 108.982 20.4635 109.301 20.5742C109.62 20.6849 110.027 20.7956 110.521 20.9062C111.387 21.1016 112.1 21.3359 112.66 21.6094C113.22 21.8828 113.637 22.2181 113.91 22.6152C114.184 23.0124 114.32 23.4941 114.32 24.0605C114.32 24.5228 114.223 24.946 114.027 25.3301C113.839 25.7142 113.562 26.0462 113.197 26.3262C112.839 26.5996 112.41 26.8145 111.908 26.9707C111.413 27.1204 110.857 27.1953 110.238 27.1953C109.307 27.1953 108.52 27.0293 107.875 26.6973C107.23 26.3652 106.742 25.9355 106.41 25.4082C106.078 24.8809 105.912 24.3242 105.912 23.7383H107.729C107.755 24.2331 107.898 24.627 108.158 24.9199C108.419 25.2064 108.738 25.4115 109.115 25.5352C109.493 25.6523 109.867 25.7109 110.238 25.7109C110.733 25.7109 111.146 25.6458 111.479 25.5156C111.817 25.3854 112.074 25.2064 112.25 24.9785C112.426 24.7507 112.514 24.4902 112.514 24.1973Z" fill="#EEEEEC"/>
</svg>
